<svg id="Layer_1" data-name="Layer 1" xmlns="http://www.w3.org/2000/svg" viewBox="0 0 300 300"><defs><style>.cls-1{fill:#66cb44;}</style></defs><path class="cls-1" d="M115.22,245.37H99.32a.7.7,0,0,1-.76-.48A78.4,78.4,0,0,0,92.24,234c-5-7.43-10.41-14.51-16-21.5q-11.17-14-23-27.44c-.29-.32-.26-.44.08-.67q16.81-11.19,33.6-22.4c.36-.24.47-.14.64.17a82.87,82.87,0,0,0,11.27,15.5,34.93,34.93,0,0,0,8.54,6.91,15.72,15.72,0,0,0,5.61,1.92,10.18,10.18,0,0,0,3.92-.23.52.52,0,0,0,.37-.33c8.64-17.77,18.85-34.64,29.36-51.34,8.82-14,18.12-27.68,28.21-40.81a228,228,0,0,1,19.26-22.39,93.21,93.21,0,0,1,10-8.73,39,39,0,0,1,14-6.46,48.8,48.8,0,0,1,14.73-1.56,25.35,25.35,0,0,1,9.92,2.23,9.92,9.92,0,0,1,2.55,1.76,5.29,5.29,0,0,1,1.33,6,8.23,8.23,0,0,1-2.8,3.93,143.83,143.83,0,0,0-15.4,14.11,295.3,295.3,0,0,0-24.71,29.75c-9.69,13.14-18.61,26.8-27,40.79a626.06,626.06,0,0,0-33.55,63.54c-4,8.74-7.68,17.59-10.81,26.67-.15.46-.33.92-.45,1.39s-.31.57-.77.57Q123.15,245.36,115.22,245.37Z"/></svg>